P2
5 5
255
254 127 127 127 254
127 254 127 254 127
127 127 254 127 127
127 254 127 254 127
254 127 127 127 254
